<?xml version="1.0" encoding="UTF-8"?>
<svg width="64" height="64" version="1.1" viewBox="0 0 16.933 16.933" xmlns="http://www.w3.org/2000/svg" xmlns:cc="http://creativecommons.org/ns#" xmlns:dc="http://purl.org/dc/elements/1.1/" xmlns:rdf="http://www.w3.org/1999/02/22-rdf-syntax-ns#" xmlns:xlink="http://www.w3.org/1999/xlink">
 <defs>
  <linearGradient x1="280" x2="280" y1="172" y2="20" gradientUnits="userSpaceOnUse">
   <stop stop-color="#babdb6" offset="0"/>
   <stop stop-color="#babdb6" stop-opacity="0" offset="1"/>
  </linearGradient>
  <clipPath>
   <circle cx="64" cy="236" r="52" enable-background="new" fill="#3584e4" style="paint-order:normal"/>
  </clipPath>
 </defs>
 <metadata>
  <rdf:RDF>
   <cc:Work rdf:about="">
    <dc:format>image/svg+xml</dc:format>
    <dc:type rdf:resource="http://purl.org/dc/dcmitype/StillImage"/>
   </cc:Work>
  </rdf:RDF>
 </metadata>
 <g transform="translate(0 -280.07)">
  <circle cx="339.13" cy="285.69" r="0" enable-background="new" fill="#d5d3cf"/>
  <path d="m8.4667 280.34c4.676 0 8.4667 3.7286 8.4667 8.3279 0 4.5993-3.7907 8.3279-8.4667 8.3279-4.676 0-8.4667-3.7286-8.4667-8.3279 0-4.5993 3.7907-8.3279 8.4667-8.3279z" fill="url(#a-3)" stroke-width=".13995"/>
  <path d="m8.4667 280.34c-4.676 0-8.4667 3.7286-8.4667 8.3279 0 4.5993 3.7907 8.3279 8.4667 8.3279z" fill="url(#b-6)" stroke-width=".13995"/>
  <g>
   <g stroke-width=".13995">
    <path d="m16.933 288.39c0 4.5993-3.7907 8.3279-8.4667 8.3279-4.676 0-8.4667-3.7286-8.4667-8.3279 0-4.5993 3.7907-8.3279 8.4667-8.3279 4.676 0 8.4667 3.7286 8.4667 8.3279z" fill="#f27253"/>
    <path d="m3.3872 288.53c0.017637 1.9312 0.4068 3.7985 1.1057 5.309-0.55618 0.27976-1.0275 0.61646-1.3918 0.99381-1.9248-1.5506-3.0587-3.856-3.1-6.3028z" fill="#f68d4b"/>
    <path d="m8.4667 292.97v3.7475c-0.635 0-1.2683-0.0705-1.8874-0.20982-0.81855-0.56332-1.5373-1.4839-2.0858-2.6702 1.1151-0.56061 2.5213-0.86749 3.9732-0.86749z" fill="#f05f59"/>
    <path d="m13.546 288.53c-0.01764 1.9312-0.4068 3.7985-1.1063 5.309 0.55673 0.27976 1.0275 0.61646 1.3918 0.99381 1.9248-1.5506 3.0587-3.856 3.1006-6.3028z" fill="#ec3e62"/>
    <path d="m8.4667 288.53v8.1891c0.635 0 1.2683-0.0705 1.8874-0.20982 1.9011-1.3094 3.1596-4.4551 3.1921-7.9792z" fill="#f05f59"/>
    <path d="m8.4667 292.97v3.7475c0.635 0 1.2683-0.0705 1.8874-0.20982 0.81856-0.56332 1.5373-1.4839 2.0858-2.6702-1.1151-0.56061-2.5213-0.86749-3.9732-0.86749z" fill="#ec3e62"/>
   </g>
   <path d="m12.44 293.84c-0.54901 1.1863-1.2678 2.1064-2.0858 2.6702 1.275-0.28681 2.4656-0.86098 3.4776-1.6764-0.36435-0.37735-0.83564-0.71405-1.3918-0.99381z" fill="#e50d71"/>
   <g stroke-width=".13995">
    <path d="m8.4667 280.07c-4.676 0-8.4667 3.7286-8.4667 8.3279 0 0.0461 5.3333e-4 0.0927 0.00112 0.1388h8.4656z" fill="#f9a744"/>
    <path d="m6.5793 280.28c-1.2755 0.28735-2.4661 0.86098-3.4782 1.6764 0.36435 0.3779 0.83564 0.71405 1.3924 0.99436 0.54901-1.1868 1.2678-2.1069 2.0858-2.6708z" fill="#ffd137"/>
    <path d="m8.4667 280.07c-0.635 0-1.2678 0.0705-1.8874 0.20928-1.9282 1.3283-3.1926 4.5435-3.1926 8.1186 0 0.0461 0 0.0927 5.334e-4 0.1388h5.0794z" fill="#f68d4b"/>
    <path d="m8.4667 280.07c-0.635 0-1.2678 0.0705-1.8874 0.20928-0.818 0.56386-1.5368 1.4839-2.0858 2.6708 1.1157 0.56061 2.5213 0.86749 3.9732 0.86749z" fill="#f9a744"/>
    <path d="m8.4667 280.07c4.676 0 8.4667 3.7286 8.4667 8.3279 0 0.0461-5.87e-4 0.0927-0.0011 0.1388h-8.4656z" fill="#f05f59"/>
    <path d="m10.354 280.28c1.2755 0.28735 2.4661 0.86098 3.4782 1.6764-0.36435 0.3779-0.83564 0.71405-1.3918 0.99382-0.54956-1.1863-1.2683-2.1064-2.0864-2.6702z" fill="#f27253"/>
    <path d="m8.4666 280.07c0.635 0 1.2683 0.0705 1.8874 0.20928 1.9282 1.3283 3.1926 4.5435 3.1926 8.1186 0 0.0461 0 0.0927-5.33e-4 0.1388h-5.0794z" fill="#f27253"/>
    <path d="m8.4667 280.07c0.635 0 1.2683 0.0705 1.8874 0.20928 0.818 0.56386 1.5368 1.4839 2.0858 2.6702-1.1157 0.56115-2.5213 0.86803-3.9732 0.86803z" fill="#f68d4b"/>
   </g>
  </g>
  <circle cx="-19.347" cy="294.53" r="0" enable-background="new" fill="#d5d3cf"/>
 </g>
</svg>
