<svg xmlns="http://www.w3.org/2000/svg" width="16" height="16">
    <g fill='context-fill' stroke='context-stroke' fill-opacity='context-fill-opacity' stroke-opacity='context-stroke-opacity'>
        <path d="M7.994 0a6.01 6.01 0 0 0-5.87 4.777c-.528 2.533.69 5.036 2.874 6.327l.002.898A1 1 0 0 0 6 13h4a1 1 0 0 0 1-.998l.002-.9c2.183-1.293 3.399-3.797 2.87-6.33A6.01 6.01 0 0 0 7.993 0zm.002 2c1.9 0 3.529 1.322 3.918 3.182a3.99 3.99 0 0 1-2.312 4.484 1 1 0 0 0-.6.914L9 11H6.998v-.418a1 1 0 0 0-.602-.914 3.992 3.992 0 0 1-2.314-4.484A3.99 3.99 0 0 1 7.996 2z" style="line-height:normal;font-variant-ligatures:normal;font-variant-position:normal;font-variant-caps:normal;font-variant-numeric:normal;font-variant-alternates:normal;font-feature-settings:normal;text-indent:0;text-align:start;text-decoration-line:none;text-decoration-style:solid;text-transform:none;text-orientation:mixed;shape-padding:0;isolation:auto;mix-blend-mode:normal" font-weight="400" font-family="sans-serif" white-space="normal" overflow="visible"/>
        <path d="M6 15c0 .554.446 1 1 1h2c.554 0 1-.446 1-1v-1H6z"/>
        <path d="M6.992 5.994a.5.5 0 0 0-.347.86l1 1a.5.5 0 0 0 .707 0l1-1a.5.5 0 1 0-.707-.707l-.647.646-.646-.646a.5.5 0 0 0-.36-.153z" style="line-height:normal;font-variant-ligatures:normal;font-variant-position:normal;font-variant-caps:normal;font-variant-numeric:normal;font-variant-alternates:normal;font-feature-settings:normal;text-indent:0;text-align:start;text-decoration-line:none;text-decoration-style:solid;text-transform:none;text-orientation:mixed;shape-padding:0;isolation:auto;mix-blend-mode:normal" font-weight="400" font-family="sans-serif" white-space="normal" overflow="visible" opacity=".35" fill-rule="evenodd"/>
    </g>
</svg>
