<svg xmlns="http://www.w3.org/2000/svg" width="16" height="16">
    <path d="M8 1a7 7 0 1 0 0 14A7 7 0 0 0 8 1zM6 5c.558 0 1.031.473 1.031 1.031V7c0 .558-.473 1-1.031 1-.558 0-1-.442-1-1v-.969C5 5.473 5.442 5 6 5zm4 0c.558 0 1 .473 1 1.031V7c0 .558-.442 1-1 1s-1-.442-1-1v-.969C9 5.473 9.442 5 10 5zM3 9.031c2 1.304 7.987 1.304 10.031 0l-.03.531c-.037.43-1 3.376-5 3.407-4 .031-5-2.78-5-3.313z" fill='context-fill' stroke='context-stroke' fill-opacity='context-fill-opacity' stroke-opacity='context-stroke-opacity'/>
</svg>
