<svg xmlns="http://www.w3.org/2000/svg" width="16.023" height="16">
    <g fill='context-fill' stroke='context-stroke' fill-opacity='context-fill-opacity' stroke-opacity='context-stroke-opacity'>
        <path d="M2.996 4.986A1 1 0 0 0 2.012 6v7a1 1 0 0 0 1 1h10a1 1 0 0 0 1-1V6a1 1 0 1 0-2 0v6h-8V6a1 1 0 0 0-1.016-1.014z" style="line-height:normal;font-variant-ligatures:normal;font-variant-position:normal;font-variant-caps:normal;font-variant-numeric:normal;font-variant-alternates:normal;font-feature-settings:normal;text-indent:0;text-align:start;text-decoration-line:none;text-decoration-style:solid;text-transform:none;text-orientation:mixed;shape-padding:0;isolation:auto;mix-blend-mode:normal" font-weight="400" font-family="sans-serif" white-space="normal" overflow="visible"/>
        <path d="M8.031 1a1 1 0 0 0-.601.186l-7 5a1 1 0 1 0 1.162 1.628l6.42-4.585 6.418 4.585a1 1 0 1 0 1.162-1.628l-7-5A1 1 0 0 0 8.032 1z" style="line-height:normal;font-variant-ligatures:normal;font-variant-position:normal;font-variant-caps:normal;font-variant-numeric:normal;font-variant-alternates:normal;font-feature-settings:normal;text-indent:0;text-align:start;text-decoration-line:none;text-decoration-style:solid;text-transform:none;text-orientation:mixed;shape-padding:0;isolation:auto;mix-blend-mode:normal" color="#000" font-weight="400" font-family="sans-serif" white-space="normal" overflow="visible"/>
        <path d="M6.012 8h3v6h-3z" style="marker:none" overflow="visible"/>
        <path d="M15.512 7a.499.499 0 1 0 0 1 .499.499 0 1 0 0-1zM.512 7a.499.499 0 1 0 0 1 .499.499 0 1 0 0-1z"/>
    </g>
</svg>
