<?xml version="1.0" encoding="UTF-8" standalone="no"?>
<svg
   xmlns:osb="http://www.openswatchbook.org/uri/2009/osb"
   xmlns:dc="http://purl.org/dc/elements/1.1/"
   xmlns:cc="http://creativecommons.org/ns#"
   xmlns:rdf="http://www.w3.org/1999/02/22-rdf-syntax-ns#"
   xmlns:svg="http://www.w3.org/2000/svg"
   xmlns="http://www.w3.org/2000/svg"
   width="16"
   viewBox="0 0 16 16"
   version="1.1"
   id="svg7384"
   height="16">
  <metadata
     id="metadata90">
    <rdf:RDF>
      <cc:Work
         rdf:about="">
        <dc:format>image/svg+xml</dc:format>
        <dc:type
           rdf:resource="http://purl.org/dc/dcmitype/StillImage" />
        <dc:title>Gnome Symbolic Icon Theme</dc:title>
      </cc:Work>
    </rdf:RDF>
  </metadata>
  <title
     id="title9167">Gnome Symbolic Icon Theme</title>
  <defs
     id="defs7386">
    <linearGradient
       osb:paint="solid"
       id="linearGradient7212">
      <stop
         style="stop-color:#000000;stop-opacity:1;"
         offset="0"
         id="stop7214" />
    </linearGradient>
  </defs>
  <g
     transform="translate(-39.9997,39.98872)"
     style="display:inline"
     id="layer1" />
  <g
     transform="translate(-280.9999,406.98872)"
     style="display:inline"
     id="layer9" />
  <g
     transform="translate(-280.9999,406.98872)"
     style="display:inline"
     id="g7628" />
  <g
     transform="translate(-39.9997,39.98872)"
     style="display:inline"
     id="g6387" />
  <g
     transform="translate(-39.9997,39.98872)"
     style="display:inline"
     id="layer10" />
  <g
     transform="translate(-39.9997,39.98872)"
     id="layer12"
     fill='context-fill'
     stroke='context-stroke'
      fill-opacity='context-fill-opacity'
     stroke-opacity='context-stroke-opacity'>
    <path
       d="m 47.90615,-39.89497 c -0.5255,-0.0286 -1.03823,0.28305 -1.4375,0.96875 l -6.25,11.59375 c -0.53347,0.96339 0.04822,2.34375 1.09375,2.34375 h 13.15625 c 0.98172,0 1.90311,-1.15939 1.21875,-2.34375 l -6.3125,-11.53125 c -0.39872,-0.64617 -0.94325,-1.00262 -1.46875,-1.03125 z m 0.0625,3.9375 c 0.54448,-0.0172 1.04849,0.48677 1.03125,1.03125 v 3.9375 c 0.007,0.52831 -0.47163,1 -1,1 -0.52836,0 -1.00747,-0.47169 -1,-1 v -3.9375 c -0.008,-0.4666 0.3541,-0.91253 0.8125,-1 0.0511,-0.0145 0.10345,-0.02495 0.15625,-0.03125 z m 0.03125,6.96875 c 0.552285,0 1,0.447715 1,1 0,0.552285 -0.447715,1 -1,1 -0.552285,0 -1,-0.447715 -1,-1 0,-0.552285 0.447715,-1 1,-1 z"
       id="path18112"
       style="display:inline;overflow:visible;visibility:visible;fill-opacity:1;fill-rule:nonzero;stroke:none;stroke-width:1.78124988;marker:none;enable-background:new" />
  </g>
  <g
     transform="translate(-39.9997,39.98872)"
     style="display:inline"
     id="layer11" />
</svg>
