<svg xmlns="http://www.w3.org/2000/svg" width="16" height="16">
    <g color="#000" font-weight="400" font-family="sans-serif" white-space="normal" fill="#474747">
        <path d="M6.508 1C3.48 1 1.002 3.474 1.002 6.5S3.48 12 6.508 12s5.505-2.474 5.505-5.5S9.536 1 6.508 1zm0 2a3.488 3.488 0 0 1 3.505 3.5c0 1.944-1.557 3.5-3.505 3.5a3.488 3.488 0 0 1-3.506-3.5c0-1.944 1.557-3.5 3.506-3.5z" style="line-height:normal;font-variant-ligatures:normal;font-variant-position:normal;font-variant-caps:normal;font-variant-numeric:normal;font-variant-alternates:normal;font-feature-settings:normal;text-indent:0;text-align:start;text-decoration-line:none;text-decoration-style:solid;text-decoration-color:#000;text-transform:none;text-orientation:mixed;shape-padding:0;isolation:auto;mix-blend-mode:normal;marker:none" overflow="visible"/>
        <path d="M10 8.99a1 1 0 0 0-.696 1.717l4.004 4a1 1 0 1 0 1.414-1.414l-4.003-4a1 1 0 0 0-.72-.303z" style="line-height:normal;font-variant-ligatures:normal;font-variant-position:normal;font-variant-caps:normal;font-variant-numeric:normal;font-variant-alternates:normal;font-feature-settings:normal;text-indent:0;text-align:start;text-decoration-line:none;text-decoration-style:solid;text-decoration-color:#000;text-transform:none;text-orientation:mixed;shape-padding:0;isolation:auto;mix-blend-mode:normal;marker:none" overflow="visible"/>
    </g>
</svg>
