<svg xmlns="http://www.w3.org/2000/svg" width="16" height="16">
    <g color="#000" font-weight="400" font-family="Sans" fill="#474747">
        <path d="M3.549.09a3.5 3.5 0 0 0-1.143.216l1.885 1.88c.387.386.387 1 0 1.387l-.711.708a.98.98 0 0 1-1.39 0L.303 2.401a3.473 3.473 0 0 0-.216 1.14 3.456 3.456 0 0 0 3.46 3.452 3.5 3.5 0 0 0 1.144-.216l1.174 1.171a2.472 2.465 0 0 1 .062 0l2.07-2.064-1.205-1.202c.125-.356.217-.742.217-1.14A3.456 3.456 0 0 0 3.549.09zm6.55 7.89l-2.07 2.064a2.472 2.465 0 0 1 .031.092l1.144 1.14a3.474 3.474 0 0 0-.217 1.14 3.456 3.456 0 0 0 3.461 3.452c.434 0 .854-.102 1.236-.247l-2.008-2.003a1.01 1.01 0 0 1 0-1.417l.68-.678c.193-.193.457-.308.71-.308.253 0 .517.115.71.308l1.947 1.941c.105-.33.186-.683.186-1.047a3.456 3.456 0 0 0-3.46-3.452 3.5 3.5 0 0 0-1.144.216L10.1 7.979z" style="line-height:normal;-inkscape-font-specification:Sans;text-indent:0;text-align:start;text-decoration-line:none;text-transform:none;marker:none" overflow="visible"/>
        <path d="M13.858 0l-1.542 1.438c-.452.42-.53 1.148-.267 1.706L6.161 9.14a1.492 1.488 0 0 0-.031 0 1.492 1.488 0 0 0-.84-.148 1.492 1.488 0 0 0-.867.44L.477 13.43a1.494 1.49 0 1 0 2.13 2.09l3.946-3.997a1.492 1.488 0 0 0 .297-1.738l5.888-5.965c.558.249 1.273.147 1.707-.292l1.417-1.56L13.858 0z" style="line-height:normal;-inkscape-font-specification:Sans;text-indent:0;text-align:start;text-decoration-line:none;text-transform:none;marker:none" overflow="visible"/>
    </g>
</svg>
