<?xml version="1.0" encoding="UTF-8" standalone="no"?>
<svg
   xmlns:dc="http://purl.org/dc/elements/1.1/"
   xmlns:cc="http://creativecommons.org/ns#"
   xmlns:rdf="http://www.w3.org/1999/02/22-rdf-syntax-ns#"
   xmlns:svg="http://www.w3.org/2000/svg"
   xmlns="http://www.w3.org/2000/svg"
   xmlns:sodipodi="http://sodipodi.sourceforge.net/DTD/sodipodi-0.dtd"
   xmlns:inkscape="http://www.inkscape.org/namespaces/inkscape"
   width="16.009"
   height="16"
   version="1.1"
   id="svg8"
   sodipodi:docname="tab-new-symbolic.svg"
   inkscape:version="0.92.5 (2060ec1f9f, 2020-04-08)">
  <metadata
     id="metadata14">
    <rdf:RDF>
      <cc:Work
         rdf:about="">
        <dc:format>image/svg+xml</dc:format>
        <dc:type
           rdf:resource="http://purl.org/dc/dcmitype/StillImage" />
      </cc:Work>
    </rdf:RDF>
  </metadata>
  <defs
     id="defs12" />
  <sodipodi:namedview
     pagecolor="#ffffff"
     bordercolor="#666666"
     borderopacity="1"
     objecttolerance="10"
     gridtolerance="10"
     guidetolerance="10"
     inkscape:pageopacity="0"
     inkscape:pageshadow="2"
     inkscape:window-width="1920"
     inkscape:window-height="1017"
     id="namedview10"
     showgrid="false"
     inkscape:zoom="41.7193"
     inkscape:cx="3.5098248"
     inkscape:cy="7.8644068"
     inkscape:window-x="0"
     inkscape:window-y="26"
     inkscape:window-maximized="1"
     inkscape:current-layer="svg8" />
  <g
     fill="#2e3436"
     id="g6">
    <path
       id="path2"
       style="line-height:normal;font-variant-ligatures:normal;font-variant-position:normal;font-variant-caps:normal;font-variant-numeric:normal;font-variant-alternates:normal;font-feature-settings:normal;text-indent:0;text-align:start;text-decoration-line:none;text-decoration-style:solid;text-decoration-color:#000;text-transform:none;text-orientation:mixed;shape-padding:0;isolation:auto;mix-blend-mode:normal"
       d="m 4.0039062,1 c 0,0 -0.7092656,-0.0135312 -1.4472656,0.3554688 C 1.8176406,1.7254688 1.0039063,2.667 1.0039062,4 v 9 H 0.00390625 l -0.00585938,2 h 0.00585938 l 2.99999995,0.0098 V 15 H 16.003906 v -2 h -1 V 4 c 0,0 0.01353,-0.7092656 -0.355468,-1.4472656 C 14.278435,1.8137344 13.336906,1 12.003906,1 Z m 0,2 h 7.9999998 c 0.667,0 0.723516,0.1862656 0.853516,0.4472656 C 12.988422,3.7092656 13.003906,4 13.003906,4 v 9 H 3.0039062 V 4 c 0,-0.667 0.1843125,-0.7254687 0.4453126,-0.8554688 C 3.7112188,3.0135316 4.0039062,3 4.0039062,3 Z" />
  </g>
  <rect
     id="rect3719"
     width="4.8517251"
     height="4.3271651"
     x="2.157275"
     y="2.6728349"
     style="fill:#2e3436;fill-opacity:1" />
  <rect
     id="rect3721"
     width="4.74962"
     height="4.4230442"
     x="9.0089998"
     y="2.576956"
     style="fill:#2e3436;fill-opacity:1" />
  <rect
     id="rect3723"
     width="4.3661046"
     height="4.4592094"
     x="9.0089998"
     y="9"
     style="fill:#2e3436;fill-opacity:1" />
  <rect
     id="rect3725"
     width="4.2045426"
     height="4.3153911"
     x="2.8044574"
     y="9"
     style="fill:#2e3436;fill-opacity:1" />
  <rect
     id="rect3763"
     width="1.6778805"
     height="2.4688814"
     x="5.3311195"
     y="2.6728349"
     style="fill:#2e3436;fill-opacity:1" />
</svg>
