<svg xmlns="http://www.w3.org/2000/svg" width="16.009" height="16">
    <g fill="#2e3436">
        <path d="M4.003 1s-.709-.014-1.447.355C1.817 1.725 1.003 2.667 1.003 4v9h-1l-.004 2h.004l3 .01V15h13v-2h-1V4s.014-.709-.355-1.447C14.278 1.814 13.336 1 12.003 1zm0 2h8c.667 0 .725.186.855.447.131.262.145.553.145.553v9h-10V4c0-.667.186-.725.447-.855.262-.131.553-.145.553-.145z" style="line-height:normal;font-variant-ligatures:normal;font-variant-position:normal;font-variant-caps:normal;font-variant-numeric:normal;font-variant-alternates:normal;font-feature-settings:normal;text-indent:0;text-align:start;text-decoration-line:none;text-decoration-style:solid;text-decoration-color:#000;text-transform:none;text-orientation:mixed;shape-padding:0;isolation:auto;mix-blend-mode:normal" color="#000" font-weight="400" font-family="sans-serif" white-space="normal" overflow="visible"/>
        <path d="M7.009 5v2h-2v2h2v2h2V9h2V7h-2V5z"/>
    </g>
</svg>
