<?xml version="1.0" encoding="UTF-8" standalone="no"?>
<svg
   xmlns:dc="http://purl.org/dc/elements/1.1/"
   xmlns:cc="http://creativecommons.org/ns#"
   xmlns:rdf="http://www.w3.org/1999/02/22-rdf-syntax-ns#"
   xmlns:svg="http://www.w3.org/2000/svg"
   xmlns="http://www.w3.org/2000/svg"
   xmlns:sodipodi="http://sodipodi.sourceforge.net/DTD/sodipodi-0.dtd"
   xmlns:inkscape="http://www.inkscape.org/namespaces/inkscape"
   width="16.023"
   height="16"
   version="1.1"
   id="svg12"
   sodipodi:docname="user-home-symbolic.svg"
   inkscape:version="0.92.4 5da689c313, 2019-01-14">
  <metadata
     id="metadata18">
    <rdf:RDF>
      <cc:Work
         rdf:about="">
        <dc:format>image/svg+xml</dc:format>
        <dc:type
           rdf:resource="http://purl.org/dc/dcmitype/StillImage" />
      </cc:Work>
    </rdf:RDF>
  </metadata>
  <defs
     id="defs16" />
  <sodipodi:namedview
     pagecolor="#ffffff"
     bordercolor="#666666"
     borderopacity="1"
     objecttolerance="10"
     gridtolerance="10"
     guidetolerance="10"
     inkscape:pageopacity="0"
     inkscape:pageshadow="2"
     inkscape:window-width="1920"
     inkscape:window-height="1016"
     id="namedview14"
     showgrid="false"
     inkscape:zoom="41.7193"
     inkscape:cx="12.682092"
     inkscape:cy="8.5745853"
     inkscape:window-x="0"
     inkscape:window-y="27"
     inkscape:window-maximized="1"
     inkscape:current-layer="svg12" />
  <path
     id="path2"
     style="color:#000000;font-weight:400;line-height:normal;font-family:sans-serif;font-variant-ligatures:normal;font-variant-position:normal;font-variant-caps:normal;font-variant-numeric:normal;font-variant-alternates:normal;font-feature-settings:normal;text-indent:0;text-align:start;text-decoration:none;text-decoration-line:none;text-decoration-style:solid;text-decoration-color:#000000;text-transform:none;text-orientation:mixed;white-space:normal;shape-padding:0;overflow:visible;isolation:auto;mix-blend-mode:normal;fill:#474747"
     d="M 3.0078125,4.9863281 A 1,1 0 0 0 2.0234375,6 v 7 a 1,1 0 0 0 1,1 h 5.296875 c 0.031229,-0.605238 0.067303,-1.210824 0.091797,-1.816406 -0.035705,-0.016 -0.066016,-0.04117 -0.082031,-0.105469 -0.00695,-0.02792 0.018536,-0.0526 0.037109,-0.07813 h -4.34375 V 6 A 1,1 0 0 0 3.0078125,4.9863281 Z M 12.994141,5 a 1,1 0 0 0 -0.970703,1 v 5.833984 c 0.03663,0.02018 0.06572,0.06146 0.06836,0.142578 0.0036,0.110688 0.0056,0.247584 0.0098,0.384766 0.05485,0.210118 0.08791,0.324592 0.150391,0.628906 0.0203,0.09887 0.04215,0.196727 0.05469,0.296875 0.02155,0.172088 0.0061,0.241502 0.0039,0.40625 -6.51e-4,0.04813 0.0014,0.09639 0.002,0.144532 0.0045,0.05391 0.0027,0.108042 0.0039,0.162109 h 0.707032 a 1,1 0 0 0 1,-1 V 6 A 1,1 0 0 0 12.994141,5 Z m -4.3867191,8.095703 c -9.779e-4,0.01887 -9.716e-4,0.03777 -0.00195,0.05664 0,0 0.00195,0 0.00195,0 -3.567e-4,-0.01891 1.697e-4,-0.03776 0,-0.05664 z m 2.0859371,0.832031 c 4.91e-4,0.02545 -0.0078,0.04824 -0.01172,0.07227 h 0.01172 c 1.04e-4,-0.02408 8e-6,-0.04816 0,-0.07227 z" />
  <path
     inkscape:connector-curvature="0"
     id="path4"
     overflow="visible"
     font-weight="400"
     style="color:#000000;font-weight:400;line-height:normal;font-family:sans-serif;font-variant-ligatures:normal;font-variant-position:normal;font-variant-caps:normal;font-variant-numeric:normal;font-variant-alternates:normal;font-feature-settings:normal;text-indent:0;text-align:start;text-decoration:none;text-decoration-line:none;text-decoration-style:solid;text-decoration-color:#000000;text-transform:none;text-orientation:mixed;white-space:normal;shape-padding:0;overflow:visible;isolation:auto;mix-blend-mode:normal;fill:#474747"
     d="M 8.031,1 A 1,1 0 0 0 7.43,1.186 l -7,5 A 1.001,1.001 0 1 0 1.594,7.814 L 8.012,3.23 14.43,7.815 a 1.001,1.001 0 1 0 1.164,-1.628 l -7,-5 A 1,1 0 0 0 8.03,1 Z" />
  <path
     style="fill:#474747"
     inkscape:connector-curvature="0"
     id="path8"
     d="m 15.012,7 h 1 v 1 h -1 z m -15,0 h 1 v 1 h -1 z" />
  <path
     id="rect28"
     style="fill:none;fill-opacity:1"
     d="m 6.0117188,8.0097656 v 3.9863284 h 2.3574218 c 0.00823,-0.01135 0.010195,-0.02357 0.015625,-0.03516 0.049993,-0.02625 0.1268539,-0.07552 0.1894532,-0.05664 -8.215e-4,-0.03115 -0.00328,-0.0632 -0.00195,-0.0918 0.00219,-0.04704 -0.018765,-0.104734 0.011719,-0.140625 0.062668,-0.07378 0.1160778,-0.116746 0.1601562,-0.125 0.044078,-0.0083 0.079628,0.01847 0.109375,0.08984 0.00814,0.01953 0.010194,0.04127 0.013672,0.0625 0.002,-3.66e-4 0.0038,-0.0017 0.00586,-0.002 -0.00267,-0.04121 -0.00236,-0.08235 -0.00391,-0.123047 -0.00109,-0.01011 0.00604,-0.01575 0.00586,-0.02539 0.00196,-0.03186 0.00123,-0.06514 0.023437,-0.08789 h 0.00195 c 0.00158,-0.0015 2.215e-4,-0.0045 0.00195,-0.0059 0.0046,-0.0036 0.012405,6.41e-4 0.017578,-0.002 0.033901,-0.0231 0.07899,-0.02983 0.1230469,-0.02539 V 8.0097656 Z" />
  <rect
     style="fill:none;fill-opacity:1"
     id="rect30"
     width="0.57527333"
     height="1.6539108"
     x="6.9751887"
     y="10.606812" />
  <rect
     style="fill:#474747;fill-opacity:1"
     id="rect34"
     width="4.9857016"
     height="1.7258198"
     x="5.5609756"
     y="2.7687137" />
  <rect
     style="fill:#474747;fill-opacity:1"
     id="rect3751"
     width="9.3481903"
     height="2.3730021"
     x="3.1879728"
     y="4.3746853" />
  <rect
     style="fill:#474747;fill-opacity:1"
     id="rect3753"
     width="4.1947012"
     height="0.98275727"
     x="3.3557611"
     y="11.277965" />
  <rect
     style="fill:#474747;fill-opacity:1"
     id="rect3755"
     width="4.7939444"
     height="1.9415476"
     x="3.1879728"
     y="6.7476873" />
  <rect
     style="fill:#474747;fill-opacity:1;stroke-width:1.94935894"
     id="rect3873"
     width="1.8696383"
     height="7.2867951"
     x="6.5916734"
     y="6.699748"
     ry="0" />
  <rect
     style="fill:#474747;fill-opacity:1;stroke-width:1.65963423"
     id="rect3875"
     width="0.69512266"
     height="7.5264926"
     x="11.936921"
     y="6.4840202" />
</svg>
