<?xml version="1.0" encoding="UTF-8"?>
<svg width="16" height="16.001" enable-background="new" version="1.1" xmlns="http://www.w3.org/2000/svg" xmlns:cc="http://creativecommons.org/ns#" xmlns:dc="http://purl.org/dc/elements/1.1/" xmlns:rdf="http://www.w3.org/1999/02/22-rdf-syntax-ns#">
 <metadata>
  <rdf:RDF>
   <cc:Work rdf:about="">
    <dc:format>image/svg+xml</dc:format>
    <dc:type rdf:resource="http://purl.org/dc/dcmitype/StillImage"/>
    <dc:title>Gnome Symbolic Icons</dc:title>
    <cc:license rdf:resource="http://creativecommons.org/licenses/by-sa/4.0/"/>
   </cc:Work>
   <cc:License rdf:about="http://creativecommons.org/licenses/by-sa/4.0/">
    <cc:permits rdf:resource="http://creativecommons.org/ns#Reproduction"/>
    <cc:permits rdf:resource="http://creativecommons.org/ns#Distribution"/>
    <cc:requires rdf:resource="http://creativecommons.org/ns#Notice"/>
    <cc:requires rdf:resource="http://creativecommons.org/ns#Attribution"/>
    <cc:permits rdf:resource="http://creativecommons.org/ns#DerivativeWorks"/>
    <cc:requires rdf:resource="http://creativecommons.org/ns#ShareAlike"/>
   </cc:License>
  </rdf:RDF>
 </metadata>
 <title>Gnome Symbolic Icons</title>
 <g transform="translate(-332 -228)">
  <path d="m338.71 228a0.50005 0.50005 0 0 0-0.4375 0.64062l0.42578 1.543c-0.42482 0.10963-0.83882 0.26265-1.2383 0.45703l-1.0215-1.7656a0.50005 0.50005 0 0 0-0.45703-0.25586 0.50005 0.50005 0 0 0-0.41015 0.75781l1.0176 1.7578c-0.0779 0.05-0.14853 0.10958-0.2246 0.16211l-2.8281-2.8281-1.0606 1.0606 14 14 1.0606-1.0606-2.6953-2.6953c1.917-1.7082 3.1641-3.7734 3.1641-3.7734s-0.52469-0.86941-1.4102-1.9453l0.76368-0.76367a0.50005 0.50005 0 0 0-0.36329-0.85743 0.50005 0.50005 0 0 0-0.34375 0.15039l-0.7207 0.72071c-0.20029-0.21829-0.41092-0.42651-0.63476-0.64453l1.1035-1.4141a0.50005 0.50005 0 0 0-0.41601-0.8125 0.50005 0.50005 0 0 0-0.37305 0.19727l-1.0508 1.3438c-0.25997-0.21874-0.52743-0.4303-0.8086-0.62695l1.0723-1.7383a0.50005 0.50005 0 0 0-0.45117-0.76758 0.50005 0.50005 0 0 0-0.39844 0.24218l-1.0762 1.7383c-0.3637-0.1997-0.73969-0.3706-1.127-0.50391l0.57032-1.6465a0.50005 0.50005 0 0 0-0.46094-0.67188 0.50005 0.50005 0 0 0-0.48242 0.34375l-0.59766 1.7207c-0.26145-0.0415-0.52669-0.06445-0.79492-0.06445-0.10545 0-0.20804 0.0187-0.3125 0.0254l-0.45508-1.6504a0.50005 0.50005 0 0 0-0.47656-0.375 0.50005 0.50005 0 0 0-0.0508 0zm1.2949 4c3.866 0 6 4 6 4s-0.79592 1.486-2.291 2.6465l-1.1328-1.1328c0.26261-0.44573 0.42383-0.95888 0.42383-1.5137 0-1.6568-1.3432-3-3-3-0.55479 0-1.0679 0.16122-1.5137 0.42383l-0.88086-0.88086c0.70292-0.32829 1.5019-0.54297 2.3945-0.54297zm-6.9902 0.43359c-0.45469-0.0125-0.68858 0.53942-0.36329 0.85743l0.76368 0.76367c-0.88547 1.0759-1.4102 1.9453-1.4102 1.9453s3.5817 6 8 6c0.88494 0 1.7335-0.24784 2.5293-0.63281l-1.4785-1.4785c-0.33609 0.06553-0.68299 0.11133-1.0508 0.11133-3.866 0-6-4-6-4s0.48113-0.87041 1.3652-1.7969l-1.0976-1.0957c-0.0632 0.0653-0.13216 0.13057-0.19336 0.19727l-0.7207-0.72071c-0.0907-0.0929-0.21399-0.14639-0.34375-0.15039zm6.498 1.3926c0.37409 0 0.68164 0.31016 0.68164 0.69727 0 0.16771-0.0663 0.31822-0.16211 0.4414l-0.96289-0.96289c0.12039-0.10641 0.27318-0.17578 0.44336-0.17578zm-2.4922 2.0274c-0.00238 0.04958-0.01562 0.09638-0.01562 0.14648 0 1.6568 1.3432 3 3 3 0.0508 0 0.0982-0.0136 0.14844-0.0156z" fill="context-fill" stroke="context-stroke" fill-opacity="context-fill-opacity" stroke-opacity="context-stroke-opacity"/>
 </g>
</svg>
